<svg width="1280" height="640" viewBox="0 0 1280 640" fill="none" xmlns="http://www.w3.org/2000/svg">
<path d="M817.088 525.194L837.225 525.253C846.568 549.052 857.8 575.96 866.262 599.971C861.496 599.633 855.146 599.843 850.258 599.871C847.864 592.883 845.232 585.984 842.373 579.174L837.314 579.041L811.137 578.842C808.499 585.818 805.95 592.828 803.484 599.865C797.932 599.666 792.789 599.716 787.254 599.788C795.316 580.72 802.598 561.348 810.45 542.193C812.744 536.593 815.093 530.907 817.088 525.194ZM814.772 568.49L829.002 568.324L838.932 568.369C836.782 562.938 828.885 540.241 826.292 537.237C822.64 547.323 818.701 558.566 814.772 568.49Z" fill="#4FC5B2"/>
<path d="M427.887 523.242C435.291 522.168 447.021 524.901 454.153 526.822C454.406 530.715 454.216 536.004 454.188 540.001C444.237 535.219 434.16 532.823 423.09 535.141C398.126 540.368 394.825 575.472 416.181 587.431C423.805 591.697 434.042 591.221 442.263 588.711C442.198 582.532 442.171 576.354 442.183 570.175C438.183 569.953 433.934 569.992 429.909 569.964C429.937 566.861 429.174 563.692 430.348 561.076C432.05 559.885 431.637 560.278 434.184 560.317C440.886 560.422 447.589 560.389 454.29 560.223C454.913 572.236 454.326 585.281 454.5 597.477C440.503 600.708 426.922 603.406 412.839 598.679C399.228 594.158 389.603 582.477 388.252 568.008C385.706 540.74 402.699 525.949 427.887 523.242Z" fill="#0A5A61"/>
<path d="M488.547 550.398C504.983 550.021 516.796 558.084 516.577 575.362C516.367 591.902 507.054 598.995 492.072 601.151C485.24 601.179 478.8 600.458 473.119 596.164C462.228 587.946 460.003 570.402 468.478 559.691C473.918 552.814 480.363 551.229 488.547 550.398ZM491.902 591.215C509.617 586.793 508.267 560.178 489.144 559.713C478.678 561.58 474.224 569.366 476.379 579.872C478.107 588.301 483.842 591.005 491.902 591.215Z" fill="#0A5A61"/>
<path d="M655.925 550.409C673.408 550.526 678.616 561.736 677.94 577.639C667.273 578.166 653.381 577.883 642.598 577.828C643.019 579.401 643.623 582.028 644.327 583.43C650.588 595.898 666.082 591.52 675.668 586.688C675.596 589.858 675.851 593.986 675.968 597.211C658.296 603.883 632.974 603.872 630.46 578.52C628.802 561.802 639.107 551.296 655.925 550.409ZM643.03 570.092L658.884 570.081L666.365 570.153C664.663 560.86 661.854 558.023 651.708 559.142C645.236 562.057 645.186 563.797 643.03 570.092Z" fill="#0A5A61"/>
<path d="M757.148 550.398C783.064 550.188 776.642 581.28 776.714 599.871L763.642 599.982C764.374 589.703 767.759 547.312 746.447 563.054L745.655 563.847C739.227 570.308 741.25 590.212 741.25 599.993C737.221 599.816 732.827 599.987 728.76 600.065L728.826 552.216C733.17 552.371 736.484 552.221 740.845 551.983C740.845 554.338 740.618 556.942 740.474 559.314C746.026 552.864 748.919 551.412 757.148 550.398Z" fill="#0A5A61"/>
<path d="M525.121 552.282L537.411 552.365C537.374 562.434 536.141 579.268 540.078 587.852C551.586 595.97 558.909 587.414 559.509 575.783C559.901 568.175 559.609 559.946 559.558 552.31L571.668 552.327C571.54 557.94 571.682 564.24 571.7 569.898C571.598 579.872 571.711 590.024 571.726 600.015C568.055 599.827 563.471 599.937 559.727 599.932L559.624 593C542.91 610.56 522.086 599.04 524.928 576.088C525.667 570.114 525.04 558.693 525.121 552.282Z" fill="#0A5A61"/>
<path d="M628.523 552.393C627.379 554.67 625.931 558.599 624.935 561.093C620.499 573.4 614.604 587.78 609.645 599.91C605.141 599.865 600.638 599.915 596.136 600.059C589.734 584.228 583.429 568.352 577.222 552.443C581.543 552.31 585.867 552.266 590.189 552.315C594.811 563.254 599.338 576.514 603.59 587.78C607.49 576.104 612.046 563.864 616.261 552.282L628.523 552.393Z" fill="#0A5A61"/>
<path d="M873.454 525.035C878.164 525.338 883.185 525.194 887.928 525.149C887.462 531.996 887.9 543.693 887.917 551.096L888 599.865C883.334 599.66 878.242 599.827 873.543 599.887L873.454 525.035Z" fill="#4FC5B2"/>
<path d="M715.355 550.919C717.998 550.725 718.054 550.243 719.738 551.401C720.946 554.41 720.32 558.788 720.232 562.345C718.879 562.251 717.522 562.207 716.164 562.207C696.116 562.251 700.344 585.741 700.505 599.982C698.005 599.976 690.297 600.259 688.408 599.583L688.136 597.976L688.114 552.299L700.288 552.354L700.239 561.835C704.6 553.717 706.212 552.338 715.355 550.919Z" fill="#0A5A61"/>
<path d="M628.79 36.0176C635.222 36.0168 641.711 35.9656 648.136 36.0416L648.599 105.1C641.535 104.665 634.447 104.681 627.383 105.149C628.134 103.711 628.438 43.2502 628.79 36.0176Z" fill="#4FC5B2"/>
<path d="M658.013 91.8096C699.589 95.8762 735.94 110.697 766.825 138.919C778.18 127.922 787.074 117.595 799.5 107.179C804.758 111.121 807.236 113.184 811.942 117.759C804.287 126.614 787.762 142.109 778.908 150.923C807.339 182.674 824.352 220.529 825.071 263.553C844.817 262.783 868.942 264.706 888 262.967C887.816 268.048 887.92 273.647 887.912 278.774C866.952 278.653 846 278.676 825.047 278.843C821.947 325.875 807.979 357.341 777.15 392.636C782.248 398.187 810.536 423.711 811.407 428.469C809.297 432.294 804.391 436.701 801.075 440.371C791.781 431.152 773.026 413.27 765.363 403.807C730.666 431.534 693.133 451.116 647.536 451.605C648.232 461.205 647.824 475.04 647.84 484.991C642.159 484.924 636.485 485.005 630.811 485.238C630.228 473.986 630.484 463.091 630.644 451.828C586.658 450.484 544.555 433.682 511.73 404.372C506.228 411.328 483.452 433.652 476.421 439.851L464.863 428.653C474.325 417.601 488.978 403.742 499.614 393.138C468.465 357.23 454.705 327.054 451.706 278.912C437.824 278.027 402.098 278.357 388.149 278.897L388 263.263C409.244 263.622 430.493 263.565 451.735 263.092C455.306 218.338 466.659 186.421 496.59 152.374C486.639 140.681 473.85 129.677 463.506 117.949C467.729 113.742 471.733 110.657 476.403 106.941C487.63 117.833 498.719 128.864 509.669 140.034C515.89 133.228 525.269 126.572 533.009 121.601C560.997 103.629 583.968 96.8703 616.226 92.365C617.88 98.009 616.745 100.794 617.664 106.081C530.487 117.03 466.891 193.936 472.509 281.618C478.127 369.299 551.016 437.462 638.874 437.197C726.735 436.932 799.213 368.329 804.303 280.616C809.393 192.902 745.33 116.381 658.092 105.959L658.013 91.8096Z" fill="#0A5A61"/>
</svg>
