<svg width="128" height="128" viewBox="0 0 128 128" fill="none" xmlns="http://www.w3.org/2000/svg">
<path d="M61.7896 10.0042C63.3334 10.004 64.8907 9.99175 66.4326 10.01L66.5439 26.584C64.8485 26.4795 63.1474 26.4835 61.452 26.5957C61.6323 26.2505 61.7052 11.74 61.7896 10.0042Z" fill="#4FC5B2"/>
<path d="M68.803 23.3943C78.7815 24.3703 87.5057 27.9273 94.9181 34.7007C97.6433 32.0613 99.7778 29.5827 102.76 27.083C104.022 28.0291 104.617 28.5241 105.746 29.6222C103.909 31.7474 99.9428 35.4662 97.8178 37.5816C104.641 45.2017 108.725 54.287 108.897 64.6126C113.636 64.4279 119.426 64.8894 124 64.472C123.956 65.6916 123.981 67.0352 123.979 68.2657C118.948 68.2367 113.92 68.2423 108.891 68.2824C108.147 79.57 104.795 87.1218 97.3959 95.5926C98.6195 96.9248 105.409 103.051 105.618 104.193C105.111 105.111 103.934 106.168 103.138 107.049C100.907 104.836 96.4063 100.545 94.5671 98.2738C86.2399 104.928 77.2319 109.628 66.2887 109.745C66.4556 112.049 66.3578 115.37 66.3616 117.758C64.9981 117.742 63.6364 117.761 62.2747 117.817C62.1347 115.117 62.1961 112.502 62.2345 109.799C51.678 109.476 41.5731 105.444 33.6953 98.4094C32.3746 100.079 26.9085 105.436 25.221 106.924L22.447 104.237C24.7181 101.584 28.2348 98.258 30.7875 95.7131C23.3116 87.0951 20.0093 79.853 19.2895 68.2989C15.9579 68.0866 7.38343 68.1656 4.03587 68.2952L4 64.5432C9.09854 64.6293 14.1984 64.6155 19.2964 64.502C20.1535 53.761 22.8781 46.101 30.0616 37.9297C27.6735 35.1233 24.604 32.4825 22.1214 29.6677C23.1349 28.658 24.096 27.9177 25.2167 27.0259C27.9111 29.6399 30.5726 32.2874 33.2006 34.9682C34.6935 33.3346 36.9444 31.7372 38.8021 30.5443C45.5192 26.2309 51.0322 24.6088 58.7743 23.5276C59.1711 24.8821 58.8988 25.5505 59.1193 26.8193C38.197 29.4471 22.9339 47.9047 24.2822 68.9483C25.6304 89.9916 43.1239 106.351 64.2098 106.287C85.2963 106.224 102.691 89.759 103.913 68.7078C105.134 47.6565 89.7591 29.2914 68.8222 26.7902L68.803 23.3943Z" fill="#0A5A61"/>
</svg>
