<svg width="32" height="32" viewBox="0 0 32 32" fill="none" xmlns="http://www.w3.org/2000/svg">
<path d="M15.4474 3.00106C15.8334 3.00101 16.2227 2.99794 16.6082 3.00249L16.636 7.14601C16.2121 7.11988 15.7868 7.12089 15.363 7.14893C15.4081 7.06263 15.4263 3.43501 15.4474 3.00106Z" fill="#4FC5B2"/>
<path d="M17.2008 6.34857C19.6954 6.59257 21.8764 7.48182 23.7295 9.17516C24.4108 8.51533 24.9445 7.89568 25.69 7.27076C26.0055 7.50728 26.1541 7.63102 26.4365 7.90556C25.9772 8.43685 24.9857 9.36656 24.4545 9.8954C26.1604 11.8004 27.1811 14.0718 27.2243 16.6532C28.409 16.607 29.8565 16.7223 31 16.618C30.989 16.9229 30.9952 17.2588 30.9947 17.5664C29.7371 17.5592 28.48 17.5606 27.2228 17.5706C27.0368 20.3925 26.1987 22.2805 24.349 24.3982C24.6549 24.7312 26.3521 26.2627 26.4044 26.5481C26.2778 26.7777 25.9834 27.042 25.7845 27.2622C25.2269 26.7091 24.1016 25.6362 23.6418 25.0684C21.56 26.732 19.308 27.907 16.5722 27.9363C16.6139 28.5123 16.5894 29.3424 16.5904 29.9395C16.2495 29.9354 15.9091 29.9403 15.5687 29.9543C15.5337 29.2791 15.549 28.6254 15.5586 27.9497C12.9195 27.869 10.3933 26.8609 8.42382 25.1023C8.09366 25.5197 6.72711 26.8591 6.30524 27.2311L5.61175 26.5592C6.17953 25.8961 7.05871 25.0645 7.69686 24.4283C5.82789 22.2738 5.00232 20.4633 4.82238 17.5747C3.98946 17.5216 1.84586 17.5414 1.00897 17.5738L1 16.6358C2.27464 16.6573 3.54961 16.6539 4.8241 16.6255C5.03837 13.9402 5.71953 12.0252 7.51539 9.98243C6.91837 9.28084 6.151 8.62062 5.53034 7.91692C5.78373 7.66449 6.02399 7.47942 6.30418 7.25647C6.97777 7.90997 7.64316 8.57186 8.30016 9.24205C8.67337 8.83365 9.23611 8.43431 9.70051 8.13608C11.3798 7.05774 12.7581 6.65221 14.6936 6.38189C14.7928 6.72053 14.7247 6.88763 14.7798 7.20483C9.54924 7.86179 5.73349 12.4762 6.07054 17.7371C6.4076 22.9979 10.781 27.0877 16.0525 27.0718C21.3241 27.0559 25.6728 22.9398 25.9782 17.6769C26.2836 12.4141 22.4398 7.82285 17.2055 7.19755L17.2008 6.34857Z" fill="#0A5A61"/>
</svg>
