<svg width="512" height="512" viewBox="0 0 512 512" fill="none" xmlns="http://www.w3.org/2000/svg">
<path d="M246.79 31.0176C253.222 31.0168 259.711 30.9656 266.136 31.0416L266.599 100.1C259.535 99.6646 252.447 99.6814 245.383 100.149C246.135 98.7105 246.438 38.2502 246.79 31.0176Z" fill="#4FC5B2"/>
<path d="M276.013 86.8097C317.589 90.8763 353.94 105.697 384.825 133.92C396.18 122.922 405.074 112.595 417.5 102.179C422.758 106.121 425.236 108.184 429.942 112.759C422.287 121.614 405.762 137.11 396.908 145.924C425.339 177.674 442.352 215.53 443.071 258.553C462.817 257.783 486.942 259.706 506 257.967C505.816 263.048 505.92 268.647 505.912 273.774C484.952 273.653 464 273.676 443.047 273.843C439.947 320.875 425.979 352.341 395.15 387.636C400.248 393.187 428.536 418.711 429.407 423.469C427.297 427.294 422.391 431.701 419.075 435.371C409.781 426.152 391.026 408.27 383.363 398.807C348.666 426.534 311.133 446.116 265.536 446.605C266.232 456.205 265.824 470.04 265.84 479.992C260.159 479.924 254.485 480.005 248.811 480.238C248.228 468.986 248.484 458.091 248.644 446.828C204.658 445.484 162.555 428.682 129.73 399.372C124.228 406.328 101.452 428.652 94.4206 434.851L82.8625 423.653C92.3254 412.601 106.978 398.742 117.614 388.138C86.4649 352.23 72.7053 322.054 69.7063 273.912C55.8244 273.028 20.0976 273.357 6.14944 273.897L6 258.263C27.2439 258.622 48.4934 258.565 69.735 258.092C73.3061 213.338 84.6589 181.421 114.59 147.374C104.639 135.681 91.85 124.677 81.5057 112.949C85.7289 108.742 89.7331 105.657 94.403 101.941C105.63 112.833 116.719 123.865 127.669 135.034C133.89 128.228 143.269 121.572 151.009 116.602C178.997 98.6291 201.968 91.8704 234.226 87.3651C235.88 93.0091 234.745 95.7939 235.664 101.081C148.487 112.03 84.8914 188.936 90.5091 276.618C96.1267 364.299 169.016 432.462 256.874 432.197C344.735 431.932 417.213 363.329 422.303 275.616C427.393 187.902 363.33 111.381 276.092 100.959L276.013 86.8097Z" fill="#0A5A61"/>
</svg>
