<svg width="500" height="79" viewBox="0 0 500 79" fill="none" xmlns="http://www.w3.org/2000/svg">
<path d="M429.088 2.19406L449.225 2.25281C458.568 26.0516 469.8 52.9601 478.262 76.9706C473.496 76.6326 467.146 76.8432 462.258 76.8709C459.864 69.8833 457.232 62.9843 454.373 56.1741L449.314 56.0411L423.137 55.8416C420.499 62.8181 417.95 69.8279 415.484 76.8653C409.932 76.6659 404.789 76.7157 399.254 76.7878C407.316 57.7201 414.598 38.3477 422.45 19.1931C424.744 13.5925 427.093 7.90659 429.088 2.19406ZM426.772 45.4905L441.002 45.3242L450.932 45.3685C448.782 39.9381 440.885 17.2409 438.292 14.237C434.64 24.3227 430.701 35.566 426.772 45.4905Z" fill="#4FC5B2"/>
<path d="M39.8874 0.242377C47.2911 -0.832082 59.0215 1.90147 66.1526 3.82153C66.4058 7.71485 66.2163 13.004 66.1875 17.001C56.237 12.2188 46.1596 9.82276 35.0897 12.1407C10.1256 17.3678 6.8252 52.4725 28.1814 64.4306C35.8051 68.6974 46.0421 68.2209 54.2632 65.7107C54.1978 59.5321 54.1712 53.3535 54.1828 47.175C50.1831 46.9533 45.934 46.9921 41.9088 46.9644C41.9371 43.8613 41.1735 40.6917 42.3483 38.0762C44.05 36.8848 43.6366 37.2783 46.184 37.3171C52.8862 37.4223 59.5889 37.3891 66.29 37.2228C66.9129 49.2364 66.326 62.2806 66.5 74.477C52.5033 77.7076 38.9221 80.4062 24.8388 75.6795C11.2277 71.1578 1.60306 59.4767 0.252087 45.0084C-2.29414 17.7402 14.6988 2.9493 39.8874 0.242377Z" fill="#0A5A61"/>
<path d="M100.547 27.3981C116.983 27.0213 128.796 35.0838 128.577 52.3616C128.367 68.9024 119.054 75.9953 104.072 78.1509C97.2404 78.1786 90.7998 77.4582 85.1194 73.1637C74.2279 64.9459 72.0031 47.4022 80.478 36.6909C85.9184 29.8141 92.363 28.2293 100.547 27.3981ZM103.902 68.2153C121.617 63.7934 120.267 37.1785 101.144 36.713C90.6784 38.5804 86.2238 46.3659 88.3793 56.8722C90.1065 65.3006 95.8418 68.0048 103.902 68.2153Z" fill="#0A5A61"/>
<path d="M267.925 27.4091C285.408 27.5255 290.616 38.7356 289.94 54.6392C279.273 55.1656 265.381 54.883 254.598 54.8275C255.019 56.4013 255.623 59.0278 256.327 60.4298C262.588 72.8977 278.082 68.5201 287.668 63.6881C287.596 66.8577 287.851 70.986 287.968 74.211C270.296 80.8827 244.974 80.8717 242.46 55.5202C240.802 38.8021 251.107 28.2958 267.925 27.4091ZM255.03 47.0919L270.884 47.0808L278.365 47.1528C276.663 37.8601 273.854 35.0229 263.708 36.1423C257.236 39.057 257.186 40.797 255.03 47.0919Z" fill="#0A5A61"/>
<path d="M369.148 27.3982C395.064 27.1876 388.642 58.2799 388.714 76.8709L375.642 76.9817C376.374 66.7026 379.759 24.3116 358.447 40.0545L357.655 40.8469C351.227 47.3081 353.25 67.2124 353.25 76.9928C349.221 76.8155 344.827 76.9873 340.76 77.0649L340.826 29.2157C345.17 29.3709 348.484 29.2213 352.845 28.983C352.845 31.338 352.618 33.9424 352.474 36.3141C358.026 29.864 360.919 28.4122 369.148 27.3982Z" fill="#0A5A61"/>
<path d="M137.121 29.2822L149.411 29.3653C149.374 39.4339 148.141 56.2683 152.078 64.8518C163.586 72.9698 170.909 64.414 171.509 52.7828C171.901 45.1746 171.609 36.9458 171.558 29.3099L183.668 29.3265C183.54 34.9399 183.682 41.2403 183.7 46.898C183.598 56.8723 183.711 67.024 183.726 77.015C180.055 76.8266 175.471 76.9374 171.727 76.9319L171.624 69.9997C154.91 87.5601 134.086 76.0397 136.928 53.0876C137.667 47.1141 137.04 35.6935 137.121 29.2822Z" fill="#0A5A61"/>
<path d="M240.523 29.393C239.379 31.6705 237.931 35.5992 236.935 38.0928C232.499 50.4001 226.604 64.7798 221.645 76.9097C217.141 76.8654 212.638 76.9152 208.136 77.0593C201.734 61.2278 195.429 45.352 189.222 29.4429C193.543 29.3099 197.867 29.2656 202.189 29.3154C206.811 40.254 211.338 53.5143 215.59 64.7798C219.49 53.1042 224.046 40.8635 228.261 29.2822L240.523 29.393Z" fill="#0A5A61"/>
<path d="M485.454 2.03503C490.164 2.33814 495.185 2.19407 499.928 2.14918C499.462 8.99601 499.9 20.6932 499.917 28.0963L500 76.8653C495.334 76.6603 490.242 76.8265 485.543 76.8875L485.454 2.03503Z" fill="#4FC5B2"/>
<path d="M327.355 27.9191C329.998 27.7251 330.054 27.243 331.738 28.4012C332.946 31.4101 332.32 35.7877 332.232 39.3452C330.879 39.251 329.522 39.2067 328.164 39.2067C308.116 39.251 312.344 62.7406 312.505 76.9817C310.005 76.9762 302.297 77.2588 300.408 76.5828L300.136 74.9758L300.114 29.2988L312.288 29.3542L312.239 38.8354C316.6 30.7174 318.212 29.3376 327.355 27.9191Z" fill="#0A5A61"/>
</svg>
